<mxfile host="app.diagrams.net" agent="Mozilla/5.0 (Macintosh; Intel Mac OS X 10_15_7) AppleWebKit/537.36 (KHTML, like Gecko) Chrome/140.0.0.0 Safari/537.36" version="28.2.4">
  <diagram name="Page-1" id="6mM2En9kl0Pbvh5baUu7">
    <mxGraphModel dx="1476" dy="829" grid="0" gridSize="10" guides="1" tooltips="1" connect="1" arrows="1" fold="1" page="1" pageScale="1" pageWidth="827" pageHeight="1169" math="0" shadow="0">
      <root>
        <mxCell id="0" />
        <mxCell id="1" parent="0" />
        <mxCell id="Uclm2KK3-d8iazGwC49n-4" style="edgeStyle=orthogonalEdgeStyle;rounded=0;orthogonalLoop=1;jettySize=auto;html=1;" parent="1" source="Uclm2KK3-d8iazGwC49n-1" target="Uclm2KK3-d8iazGwC49n-3" edge="1">
          <mxGeometry relative="1" as="geometry" />
        </mxCell>
        <mxCell id="Uclm2KK3-d8iazGwC49n-1" value="Patient" style="whiteSpace=wrap;html=1;aspect=fixed;" parent="1" vertex="1">
          <mxGeometry x="159" y="315" width="80" height="80" as="geometry" />
        </mxCell>
        <mxCell id="Uclm2KK3-d8iazGwC49n-2" value="Doctor" style="whiteSpace=wrap;html=1;aspect=fixed;" parent="1" vertex="1">
          <mxGeometry x="159" y="475" width="80" height="80" as="geometry" />
        </mxCell>
        <mxCell id="Uclm2KK3-d8iazGwC49n-8" style="edgeStyle=orthogonalEdgeStyle;rounded=0;orthogonalLoop=1;jettySize=auto;html=1;" parent="1" source="Uclm2KK3-d8iazGwC49n-3" target="Uclm2KK3-d8iazGwC49n-6" edge="1">
          <mxGeometry relative="1" as="geometry" />
        </mxCell>
        <mxCell id="Uclm2KK3-d8iazGwC49n-3" value="API Gateway" style="sketch=0;points=[[0,0,0],[0.25,0,0],[0.5,0,0],[0.75,0,0],[1,0,0],[0,1,0],[0.25,1,0],[0.5,1,0],[0.75,1,0],[1,1,0],[0,0.25,0],[0,0.5,0],[0,0.75,0],[1,0.25,0],[1,0.5,0],[1,0.75,0]];outlineConnect=0;fillColor=#dae8fc;strokeColor=#6c8ebf;dashed=0;verticalLabelPosition=bottom;verticalAlign=top;align=center;html=1;fontSize=12;fontStyle=0;aspect=fixed;shape=mxgraph.aws4.resourceIcon;resIcon=mxgraph.aws4.api_gateway;" parent="1" vertex="1">
          <mxGeometry x="319" y="395" width="80" height="80" as="geometry" />
        </mxCell>
        <mxCell id="Uclm2KK3-d8iazGwC49n-5" style="edgeStyle=orthogonalEdgeStyle;rounded=0;orthogonalLoop=1;jettySize=auto;html=1;entryX=0;entryY=0.5;entryDx=0;entryDy=0;entryPerimeter=0;" parent="1" source="Uclm2KK3-d8iazGwC49n-2" target="Uclm2KK3-d8iazGwC49n-3" edge="1">
          <mxGeometry relative="1" as="geometry" />
        </mxCell>
        <mxCell id="Uclm2KK3-d8iazGwC49n-19" style="edgeStyle=orthogonalEdgeStyle;rounded=0;orthogonalLoop=1;jettySize=auto;html=1;entryX=0;entryY=0.5;entryDx=0;entryDy=0;" parent="1" source="Uclm2KK3-d8iazGwC49n-6" target="Uclm2KK3-d8iazGwC49n-11" edge="1">
          <mxGeometry relative="1" as="geometry" />
        </mxCell>
        <mxCell id="Uclm2KK3-d8iazGwC49n-6" value="Gateway LB" style="sketch=0;outlineConnect=0;fontColor=#232F3E;gradientColor=none;fillColor=#8C4FFF;strokeColor=none;dashed=0;verticalLabelPosition=bottom;verticalAlign=top;align=center;html=1;fontSize=12;fontStyle=0;aspect=fixed;pointerEvents=1;shape=mxgraph.aws4.gateway_load_balancer;" parent="1" vertex="1">
          <mxGeometry x="439" y="396" width="78" height="78" as="geometry" />
        </mxCell>
        <mxCell id="Uclm2KK3-d8iazGwC49n-9" value="Web Servers" style="swimlane;whiteSpace=wrap;html=1;" parent="1" vertex="1">
          <mxGeometry x="549" y="305" width="278" height="290" as="geometry" />
        </mxCell>
        <mxCell id="Uclm2KK3-d8iazGwC49n-20" style="edgeStyle=orthogonalEdgeStyle;rounded=0;orthogonalLoop=1;jettySize=auto;html=1;entryX=0;entryY=0.5;entryDx=0;entryDy=0;" parent="Uclm2KK3-d8iazGwC49n-9" source="Uclm2KK3-d8iazGwC49n-11" target="Uclm2KK3-d8iazGwC49n-12" edge="1">
          <mxGeometry relative="1" as="geometry" />
        </mxCell>
        <mxCell id="Uclm2KK3-d8iazGwC49n-11" value="Auth" style="whiteSpace=wrap;html=1;aspect=fixed;" parent="Uclm2KK3-d8iazGwC49n-9" vertex="1">
          <mxGeometry x="50" y="50" width="80" height="80" as="geometry" />
        </mxCell>
        <mxCell id="Uclm2KK3-d8iazGwC49n-21" style="edgeStyle=orthogonalEdgeStyle;rounded=0;orthogonalLoop=1;jettySize=auto;html=1;entryX=0.5;entryY=0;entryDx=0;entryDy=0;" parent="Uclm2KK3-d8iazGwC49n-9" source="Uclm2KK3-d8iazGwC49n-12" target="Uclm2KK3-d8iazGwC49n-14" edge="1">
          <mxGeometry relative="1" as="geometry" />
        </mxCell>
        <mxCell id="Uclm2KK3-d8iazGwC49n-22" style="edgeStyle=orthogonalEdgeStyle;rounded=0;orthogonalLoop=1;jettySize=auto;html=1;entryX=0.5;entryY=0;entryDx=0;entryDy=0;exitX=0.5;exitY=1;exitDx=0;exitDy=0;" parent="Uclm2KK3-d8iazGwC49n-9" source="Uclm2KK3-d8iazGwC49n-12" target="Uclm2KK3-d8iazGwC49n-13" edge="1">
          <mxGeometry relative="1" as="geometry">
            <Array as="points">
              <mxPoint x="210" y="150" />
              <mxPoint x="90" y="150" />
            </Array>
          </mxGeometry>
        </mxCell>
        <mxCell id="Uclm2KK3-d8iazGwC49n-12" value="Appointment" style="whiteSpace=wrap;html=1;aspect=fixed;" parent="Uclm2KK3-d8iazGwC49n-9" vertex="1">
          <mxGeometry x="170" y="50" width="80" height="80" as="geometry" />
        </mxCell>
        <mxCell id="Uclm2KK3-d8iazGwC49n-13" value="Audit" style="whiteSpace=wrap;html=1;aspect=fixed;" parent="Uclm2KK3-d8iazGwC49n-9" vertex="1">
          <mxGeometry x="50" y="170" width="80" height="80" as="geometry" />
        </mxCell>
        <mxCell id="Uclm2KK3-d8iazGwC49n-14" value="Notification" style="whiteSpace=wrap;html=1;aspect=fixed;" parent="Uclm2KK3-d8iazGwC49n-9" vertex="1">
          <mxGeometry x="170" y="170" width="80" height="80" as="geometry" />
        </mxCell>
        <mxCell id="Uclm2KK3-d8iazGwC49n-41" style="edgeStyle=orthogonalEdgeStyle;rounded=0;orthogonalLoop=1;jettySize=auto;html=1;entryX=0.5;entryY=0;entryDx=0;entryDy=0;" parent="1" source="Uclm2KK3-d8iazGwC49n-10" target="Uclm2KK3-d8iazGwC49n-31" edge="1">
          <mxGeometry relative="1" as="geometry" />
        </mxCell>
        <mxCell id="Uclm2KK3-d8iazGwC49n-10" value="" style="sketch=0;aspect=fixed;pointerEvents=1;shadow=0;dashed=0;html=1;strokeColor=none;labelPosition=center;verticalLabelPosition=bottom;verticalAlign=top;align=center;fillColor=#00188D;shape=mxgraph.azure.queue_generic" parent="1" vertex="1">
          <mxGeometry x="694" y="635" width="130" height="39" as="geometry" />
        </mxCell>
        <mxCell id="Uclm2KK3-d8iazGwC49n-18" style="edgeStyle=orthogonalEdgeStyle;rounded=0;orthogonalLoop=1;jettySize=auto;html=1;entryX=0.5;entryY=0;entryDx=0;entryDy=0;entryPerimeter=0;" parent="1" source="Uclm2KK3-d8iazGwC49n-14" target="Uclm2KK3-d8iazGwC49n-10" edge="1">
          <mxGeometry relative="1" as="geometry" />
        </mxCell>
        <mxCell id="Uclm2KK3-d8iazGwC49n-35" value="SendGrid" style="sketch=0;points=[[0,0,0],[0.25,0,0],[0.5,0,0],[0.75,0,0],[1,0,0],[0,1,0],[0.25,1,0],[0.5,1,0],[0.75,1,0],[1,1,0],[0,0.25,0],[0,0.5,0],[0,0.75,0],[1,0.25,0],[1,0.5,0],[1,0.75,0]];outlineConnect=0;fontColor=#232F3E;gradientColor=#4D72F3;gradientDirection=north;fillColor=#3334B9;strokeColor=#ffffff;dashed=0;verticalLabelPosition=bottom;verticalAlign=top;align=center;html=1;fontSize=12;fontStyle=0;aspect=fixed;shape=mxgraph.aws4.resourceIcon;resIcon=mxgraph.aws4.simple_email_service;" parent="1" vertex="1">
          <mxGeometry x="888" y="712" width="78" height="78" as="geometry" />
        </mxCell>
        <mxCell id="Uclm2KK3-d8iazGwC49n-36" style="edgeStyle=orthogonalEdgeStyle;rounded=0;orthogonalLoop=1;jettySize=auto;html=1;" parent="1" source="Uclm2KK3-d8iazGwC49n-31" target="Uclm2KK3-d8iazGwC49n-35" edge="1">
          <mxGeometry relative="1" as="geometry" />
        </mxCell>
        <mxCell id="Uclm2KK3-d8iazGwC49n-39" value="DB" style="shape=cylinder3;whiteSpace=wrap;html=1;boundedLbl=1;backgroundOutline=1;size=15;" parent="1" vertex="1">
          <mxGeometry x="934" y="400" width="90" height="100" as="geometry" />
        </mxCell>
        <mxCell id="Uclm2KK3-d8iazGwC49n-31" value="Noti Worker" style="whiteSpace=wrap;html=1;aspect=fixed;" parent="1" vertex="1">
          <mxGeometry x="719" y="711" width="80" height="80" as="geometry" />
        </mxCell>
        <mxCell id="kaFHn4DBisBP6avPCf7R-2" style="edgeStyle=orthogonalEdgeStyle;rounded=0;orthogonalLoop=1;jettySize=auto;html=1;entryX=0;entryY=0.5;entryDx=0;entryDy=0;entryPerimeter=0;startArrow=classic;startFill=1;" edge="1" parent="1" source="Uclm2KK3-d8iazGwC49n-9" target="Uclm2KK3-d8iazGwC49n-39">
          <mxGeometry relative="1" as="geometry" />
        </mxCell>
      </root>
    </mxGraphModel>
  </diagram>
</mxfile>
